<?xml version="1.0" encoding="UTF-8" standalone="no"?>
<svg
   height="48"
   width="48"
   version="1.1"
   id="svg14"
   sodipodi:docname="icon.svg"
   xml:space="preserve"
   inkscape:version="1.4 (e7c3feb100, 2024-10-09)"
   inkscape:export-filename="./icon.png"
   inkscape:export-xdpi="1024"
   inkscape:export-ydpi="1024"
   xmlns:inkscape="http://www.inkscape.org/namespaces/inkscape"
   xmlns:sodipodi="http://sodipodi.sourceforge.net/DTD/sodipodi-0.dtd"
   xmlns:xlink="http://www.w3.org/1999/xlink"
   xmlns="http://www.w3.org/2000/svg"
   xmlns:svg="http://www.w3.org/2000/svg"><defs
     id="defs14" /><sodipodi:namedview
     id="namedview14"
     pagecolor="#ffffff"
     bordercolor="#000000"
     borderopacity="0.25"
     inkscape:showpageshadow="2"
     inkscape:pageopacity="0.0"
     inkscape:pagecheckerboard="0"
     inkscape:deskcolor="#d1d1d1"
     inkscape:zoom="8.40625"
     inkscape:cx="5.4126394"
     inkscape:cy="27.539033"
     inkscape:window-width="1920"
     inkscape:window-height="1016"
     inkscape:window-x="0"
     inkscape:window-y="0"
     inkscape:window-maximized="1"
     inkscape:current-layer="svg14" /><linearGradient
     id="a"><stop
       offset="0"
       id="stop1" /><stop
       offset="1"
       stop-opacity="0"
       id="stop2" /></linearGradient><linearGradient
     id="b"
     gradientUnits="userSpaceOnUse"
     x1="16"
     x2="34.942"
     xlink:href="#a"
     y1="11"
     y2="29.942"
     gradientTransform="translate(-1.6823361,12.953986)" /><linearGradient
     id="c"
     gradientTransform="rotate(45,-8.3030516,-6.0905669)"
     gradientUnits="userSpaceOnUse"
     x1="31.021"
     x2="50.004578"
     xlink:href="#a"
     y1="-9.896"
     y2="-7.3755012" /><linearGradient
     id="d"
     gradientUnits="userSpaceOnUse"
     x1="23.716"
     x2="26.348"
     xlink:href="#a"
     y1="13.219"
     y2="15.851"
     gradientTransform="translate(-10.598716,9.7575478)" /><linearGradient
     id="e"
     gradientTransform="matrix(1.0454421 0 0 1.0298842 46.076843 3.856842)"
     gradientUnits="userSpaceOnUse"
     x1="-45.221867"
     x2=".691726"
     y1="-4.91011"
     y2="41.697075"><stop
       offset="0"
       stop-color="#2bc0ff"
       id="stop3" /><stop
       offset="1"
       stop-color="#1d99f3"
       id="stop4" /></linearGradient><path
     d="m5.9999998-.00000914 42.0000022.00000674v42.0000004c0 3.600002-2.4 6.000008-6.000001 6.000008l-42.000001-.000006-.00000042-42.000002c0-3.6000006 2.40000002-6.00000714 6.00000022-6.00000714z"
     fill="url(#e)"
     transform="matrix(.83333329 0 0 .83333329 4 4.000002)"
     id="path4" /><path
     d="m4 44h35c3 0 5-2 5-5v-1c0 3-2 5-5 5h-35z"
     opacity=".2"
     id="path14" /><path
     d="M 23.999946,10 25.063864,20.879698 19.442573,29.595533 33.753582,48 36.546568,45.366555 c 0.45228,-0.7842 0.714844,-1.690387 0.714844,-2.660156 L 48,29.301862 Z"
     fill="url(#c)"
     opacity="0.2"
     id="path10"
     style="fill:url(#c)"
     sodipodi:nodetypes="cccccscc" /><path
     d="m 23.999948,38.000001 c 5.42296,0 9.835306,-4.411289 9.835306,-9.833931 0,-5.291924 -8.887824,-16.939418 -9.835308,-18.16607 -1.585563,2.066147 -9.835198,13.061571 -9.835198,18.167022 1.04e-4,5.42169 4.412344,9.832979 9.8352,9.832979 z"
     id="path1"
     sodipodi:nodetypes="ssccs"
     style="fill:#ffffff;stroke-width:3.02384;fill-opacity:1" /><g
     id="g14"
     transform="translate(60.21054,-40.000011)"><path
       d="m 36.970703,10.988281 -4.369141,1.177735 -4.519531,9.5 L 32,29.994141 43.285156,41.279297 C 43.737436,40.495097 44,39.58891 44,38.619141 V 18.017578 Z"
       fill="url(#c)"
       opacity="0.2"
       id="path10-1"
       style="fill:url(#c-5)" /></g></svg>
